# Blender3D v249 OBJ File: 
# www.blender3d.org
g foot
v -0.345002 0.441918 -2.466866
v -0.383251 0.549696 -2.233624
v -0.577164 0.662323 -2.484938
v -0.577164 0.662323 -2.484938
v -0.383251 0.549696 -2.233624
v -0.345002 0.441918 -2.466866
v -0.664292 0.319914 0.538737
v -0.652327 0.266110 0.486588
v -0.662853 0.264634 0.583036
v -0.660922 0.375853 0.450392
v -0.326018 0.311817 -2.503272
v -0.625191 0.454731 0.046472
v -0.581955 0.493781 -0.383868
v -0.534504 0.524271 -0.843353
v -0.490510 0.539287 -1.255631
v -0.422536 0.550121 -1.879808
v -0.334265 0.377040 -2.496474
v -0.334265 0.377040 -2.496474
v -0.326018 0.311817 -2.503272
v -0.422536 0.550121 -1.879808
v -0.490510 0.539287 -1.255631
v -0.534504 0.524271 -0.843353
v -0.581955 0.493781 -0.383868
v -0.625191 0.454731 0.046472
v -0.660922 0.375853 0.450392
v -0.652327 0.266110 0.486588
v -0.664292 0.319914 0.538737
v -0.662853 0.264634 0.583036
v -0.642091 0.977452 -2.225945
v -0.642091 0.977452 -2.225945
v -0.334265 0.377040 -2.496474
v -0.334265 0.377040 -2.496474
v -0.902841 0.234827 0.894771
v -0.902841 0.234827 0.894771
v -0.915494 0.392112 0.845910
v -0.915494 0.392112 0.845910
v -0.922817 0.550131 0.748235
v -0.922817 0.550131 0.748235
v -0.897957 0.765553 0.300877
v -0.897957 0.765553 0.300877
v -0.856635 0.866117 -0.175938
v -0.856635 0.866117 -0.175938
v -0.808816 0.941360 -0.685094
v -0.808816 0.941360 -0.685094
v -0.761841 0.973494 -1.141993
v -0.761841 0.973494 -1.141993
v -0.686795 0.988031 -1.833778
v -0.686795 0.988031 -1.833778
v -0.552036 0.475560 -2.518037
v -0.326018 0.311817 -2.503272
v -0.326018 0.311817 -2.503272
v -0.552036 0.475560 -2.518037
v -0.326018 0.311817 -2.503272
v -0.552991 0.285072 -2.312066
v -0.652327 0.266110 0.486588
v -0.529668 0.288419 -2.525856
v -0.902841 0.234827 0.894771
v -0.884593 0.246931 -2.342607
v -1.244489 0.194969 0.956608
v -0.860600 0.250395 -2.562554
v -1.216988 0.209454 -2.602076
v -0.884593 0.246931 -2.342607
v -1.216988 0.209454 -2.602076
v -0.860600 0.250395 -2.562554
v -0.529668 0.288419 -2.525856
v -0.552991 0.285072 -2.312066
v -0.902841 0.234827 0.894771
v -1.244489 0.194969 0.956608
v -0.326018 0.311817 -2.503272
v -0.652327 0.266110 0.486588
v -0.662853 0.264634 0.583036
v -0.662853 0.264634 0.583036
v -0.915242 0.685246 -2.520334
v -0.915242 0.685246 -2.520334
v -0.529668 0.288419 -2.525856
v -0.529668 0.288419 -2.525856
v -0.886502 0.468020 -2.554448
v -0.860600 0.250395 -2.562554
v -0.860600 0.250395 -2.562554
v -0.886502 0.468020 -2.554448
v -1.216988 0.209454 -2.602076
v -1.239358 0.396595 -2.594239
v -1.407910 0.187517 -2.623248
v -1.216988 0.209454 -2.602076
v -1.239358 0.396595 -2.594239
v -1.407910 0.187517 -2.623248
v -1.240369 0.206095 -2.387759
v -1.591083 0.155733 0.826996
v -1.407910 0.187517 -2.623248
v -1.742774 0.140582 0.445024
v -1.240369 0.206095 -2.387759
v -1.407910 0.187517 -2.623248
v -1.742774 0.140582 0.445024
v -1.591083 0.155733 0.826996
v -1.244489 0.194969 0.956608
v -1.244489 0.194969 0.956608
v -0.986963 1.052203 -2.253774
v -0.986963 1.052203 -2.253774
v -1.033209 1.065293 -1.850305
v -1.033209 1.065293 -1.850305
v -1.259922 0.377767 0.906392
v -1.259922 0.377767 0.906392
v -1.269873 0.561319 0.805954
v -1.269873 0.561319 0.805954
v -1.247517 0.810905 0.345779
v -1.247517 0.810905 0.345779
v -1.206444 0.926871 -0.144741
v -1.206444 0.926871 -0.144741
v -1.158291 1.013334 -0.668541
v -1.158291 1.013334 -0.668541
v -1.110353 1.049782 -1.138593
v -1.110353 1.049782 -1.138593
v -1.416678 0.257091 -2.616265
v -1.416678 0.257091 -2.616265
v -1.742774 0.140582 0.445024
v -1.755306 0.198001 0.498545
v -1.753576 0.139065 0.544001
v -1.752102 0.257618 0.407890
v -1.407910 0.187517 -2.623248
v -1.715774 0.341508 -0.006616
v -1.671555 0.382899 -0.448240
v -1.622969 0.415145 -0.919773
v -1.577862 0.430911 -1.342862
v -1.508113 0.442083 -1.983409
v -1.467770 0.441417 -2.346505
v -1.428001 0.326310 -2.585875
v -1.416678 0.257091 -2.616265
v -1.416678 0.257091 -2.616265
v -1.407910 0.187517 -2.623248
v -1.428001 0.326310 -2.585875
v -1.467770 0.441417 -2.346505
v -1.508113 0.442083 -1.983409
v -1.577862 0.430911 -1.342862
v -1.622969 0.415145 -0.919773
v -1.671555 0.382899 -0.448240
v -1.715774 0.341508 -0.006616
v -1.752102 0.257618 0.407890
v -1.742774 0.140582 0.445024
v -1.755306 0.198001 0.498545
v -1.753576 0.139065 0.544001
v -1.753576 0.139065 0.544001
v -1.753576 0.139065 0.544001
v -1.591083 0.155733 0.826996
v -1.591083 0.155733 0.826996
v -1.264494 0.583352 -2.561060
v -1.264494 0.583352 -2.561060
v -1.374301 0.909037 -1.908294
v -1.374301 0.909037 -1.908294
v -1.449533 0.894475 -1.214800
v -1.449533 0.894475 -1.214800
v -1.496632 0.862321 -0.756774
v -1.496632 0.862321 -0.756774
v -1.544588 0.787064 -0.246360
v -1.544588 0.787064 -0.246360
v -1.586039 0.686482 0.231633
v -1.586039 0.686482 0.231633
v -1.611019 0.471042 0.680097
v -1.611019 0.471042 0.680097
v -1.603722 0.313018 0.778014
v -1.603722 0.313018 0.778014
v -1.329491 0.898477 -2.301429
v -1.329491 0.898477 -2.301429
vn -0.681493 -0.700469 0.211921
vn 0.681493 0.700469 -0.211921
vn -0.987489 -0.113460 -0.109507
vn -0.987489 -0.113458 -0.109509
vn -0.987489 -0.113458 -0.109508
vn -0.987491 -0.113447 -0.109508
vn -0.987490 -0.113454 -0.109507
vn -0.987490 -0.113451 -0.109509
vn -0.987490 -0.113456 -0.109507
vn -0.987490 -0.113446 -0.109515
vn -0.987490 -0.113447 -0.109514
vn 0.987490 0.113447 0.109514
vn 0.987490 0.113446 0.109515
vn 0.987490 0.113456 0.109507
vn 0.987490 0.113451 0.109509
vn 0.987489 0.113460 0.109507
vn 0.987490 0.113454 0.109507
vn 0.987491 0.113447 0.109508
vn 0.987489 0.113458 0.109508
vn 0.987489 0.113458 0.109509
vn -0.784837 -0.481908 0.389609
vn 0.784837 0.481908 -0.389609
vn -0.468153 -0.429821 0.772066
vn 0.468153 0.429821 -0.772066
vn -0.676596 -0.471117 -0.565921
vn 0.676596 0.471117 0.565921
vn -0.678147 -0.608954 -0.411451
vn 0.678147 0.608954 0.411451
vn -0.688607 -0.697810 -0.197184
vn 0.688607 0.697810 0.197184
vn -0.796512 -0.589693 -0.133535
vn 0.796512 0.589693 0.133535
vn -0.830010 -0.544279 -0.121832
vn 0.830010 0.544279 0.121832
vn -0.849037 -0.516877 -0.109426
vn 0.849037 0.516877 0.109426
vn -0.855395 -0.507840 -0.101969
vn 0.855395 0.507840 0.101969
vn -0.856716 -0.507055 -0.094514
vn 0.856716 0.507055 0.094514
vn -0.152074 -0.121463 0.980877
vn 0.152074 0.121463 -0.980877
vn -0.114817 0.993383 0.002655
vn -0.114477 0.993421 0.003064
vn -0.115330 0.993322 0.003064
vn -0.114545 0.993413 0.003069
vn -0.114553 0.993412 0.003149
vn -0.114483 0.993420 0.003063
vn -0.114472 0.993421 0.003158
vn 0.114472 -0.993421 -0.003158
vn 0.114483 -0.993420 -0.003063
vn 0.114553 -0.993412 -0.003149
vn 0.114545 -0.993413 -0.003069
vn 0.115330 -0.993322 -0.003064
vn 0.114477 -0.993421 -0.003064
vn 0.114817 -0.993383 -0.002655
vn -0.120120 0.992756 0.002450
vn -0.115035 0.993358 0.002647
vn 0.115035 -0.993358 -0.002647
vn 0.120120 -0.992756 -0.002450
vn -0.122701 -0.645109 0.754174
vn 0.122701 0.645109 -0.754174
vn -0.853241 -0.514809 -0.083375
vn 0.853241 0.514809 0.083375
vn -0.183812 -0.195458 0.963332
vn 0.183812 0.195458 -0.963332
vn -0.778149 -0.242575 -0.579346
vn 0.778149 0.242575 0.579346
vn -0.795729 -0.344697 -0.497995
vn 0.795729 0.344697 0.497995
vn -0.823708 -0.491623 -0.282511
vn 0.823708 0.491623 0.282511
vn -0.837039 -0.516194 -0.181409
vn 0.837039 0.516194 0.181409
vn -0.851352 -0.501462 -0.154063
vn 0.851352 0.501462 0.154063
vn -0.855752 -0.502475 -0.123321
vn 0.855752 0.502475 0.123321
vn -0.856361 -0.505893 -0.103530
vn 0.856361 0.505893 0.103530
vn -0.103938 -0.053917 0.993121
vn 0.103938 0.053917 -0.993121
vn -0.104470 -0.049432 0.993299
vn 0.104470 0.049432 -0.993299
vn -0.103924 -0.054012 0.993118
vn -0.103928 -0.054013 0.993117
vn 0.103928 0.054013 -0.993117
vn 0.103924 0.054012 -0.993118
vn -0.113654 0.993515 0.003165
vn -0.114427 0.993427 0.003164
vn -0.114418 0.993428 0.003088
vn -0.114031 0.993473 0.002752
vn -0.114486 0.993420 0.003080
vn 0.114486 -0.993420 -0.003080
vn 0.114031 -0.993473 -0.002752
vn 0.114418 -0.993428 -0.003088
vn 0.114427 -0.993427 -0.003164
vn 0.113654 -0.993515 -0.003165
vn -0.135245 -0.303848 -0.943072
vn 0.135245 0.303848 0.943072
vn -0.192867 -0.601075 0.775571
vn 0.192867 0.601075 -0.775571
vn -0.114887 -0.188317 0.975365
vn 0.114887 0.188317 -0.975365
vn -0.217753 -0.976003 0.001506
vn 0.217753 0.976003 -0.001506
vn -0.125823 -0.525819 -0.841239
vn 0.125823 0.525819 0.841239
vn -0.101367 -0.894126 -0.436193
vn 0.101367 0.894126 0.436193
vn -0.152921 -0.964207 -0.216611
vn 0.152921 0.964207 0.216611
vn -0.182776 -0.969964 -0.160507
vn 0.182776 0.969964 0.160507
vn -0.204974 -0.974656 -0.089622
vn 0.204974 0.974656 0.089622
vn -0.214036 -0.975847 -0.043725
vn 0.214036 0.975847 0.043725
vn -0.106855 -0.054252 0.992793
vn 0.106855 0.054252 -0.992793
vn -0.102092 -0.049159 0.993560
vn 0.102092 0.049159 -0.993560
vn -0.040909 -0.104886 0.993642
vn 0.040909 0.104886 -0.993642
vn 0.987490 0.113449 0.109510
vn 0.987490 0.113451 0.109508
vn 0.987490 0.113450 0.109508
vn 0.987489 0.113459 0.109508
vn 0.987490 0.113452 0.109508
vn 0.987490 0.113454 0.109508
vn 0.987489 0.113460 0.109506
vn 0.987490 0.113450 0.109510
vn 0.987490 0.113459 0.109502
vn 0.987489 0.113455 0.109516
vn -0.987489 -0.113455 -0.109516
vn -0.987490 -0.113459 -0.109502
vn -0.987490 -0.113450 -0.109510
vn -0.987489 -0.113460 -0.109506
vn -0.987490 -0.113454 -0.109508
vn -0.987490 -0.113452 -0.109508
vn -0.987489 -0.113459 -0.109508
vn -0.987490 -0.113450 -0.109508
vn -0.987490 -0.113451 -0.109508
vn -0.987490 -0.113449 -0.109510
vn -0.107988 0.994146 0.003452
vn -0.108654 0.994073 0.003719
vn 0.108654 -0.994073 -0.003719
vn 0.107988 -0.994146 -0.003452
vn 0.363402 -0.218132 -0.905736
vn -0.363402 0.218132 0.905736
vn -0.155268 -0.273849 -0.949157
vn 0.155268 0.273849 0.949157
vn 0.073373 -0.576702 0.813653
vn -0.073373 0.576702 -0.813653
vn -0.212393 -0.977157 0.007358
vn 0.212393 0.977157 -0.007358
vn -0.102958 -0.167597 0.980465
vn 0.102958 0.167597 -0.980465
vn -0.215440 -0.975497 -0.044612
vn 0.215440 0.975497 0.044612
vn -0.158926 -0.480542 -0.862451
vn 0.158926 0.480542 0.862451
vn -0.173016 -0.862229 -0.476054
vn 0.173016 0.862229 0.476054
vn -0.186888 -0.952409 -0.240812
vn 0.186888 0.952409 0.240812
vn -0.206574 -0.962139 -0.177809
vn 0.206574 0.962139 0.177809
vn -0.213726 -0.972049 -0.097170
vn 0.213726 0.972049 0.097170
vn -0.073289 -0.184003 0.980190
vn 0.073289 0.184003 -0.980190
vn 0.013851 -0.173096 0.984808
vn -0.013851 0.173096 -0.984808
vn 0.764104 -0.522570 0.378239
vn -0.764104 0.522570 -0.378239
vn 0.951214 -0.289670 0.106219
vn -0.951214 0.289670 -0.106219
vn 0.951725 -0.290696 0.098563
vn -0.951725 0.290696 -0.098563
vn 0.949362 -0.301020 0.089998
vn -0.949362 0.301020 -0.089998
vn 0.940218 -0.332403 0.074147
vn -0.940218 0.332403 -0.074147
vn 0.921134 -0.385178 0.056131
vn -0.921134 0.385178 -0.056131
vn 0.851667 -0.523151 -0.031237
vn -0.851667 0.523151 0.031237
vn 0.846851 -0.457604 -0.271002
vn -0.846851 0.457604 0.271002
vn 0.827624 -0.327357 -0.455933
vn -0.827624 0.327357 0.455933
vn 0.372838 -0.321207 0.870527
vn -0.372838 0.321207 -0.870527
vn 0.379472 -0.247164 -0.891578
vn -0.379472 0.247164 0.891578
vn 0.164163 -0.606861 0.777670
vn -0.164163 0.606861 -0.777670
vn -0.067089 -0.163449 0.984268
vn 0.067089 0.163449 -0.984268
vn 0.404581 -0.911344 0.075940
vn -0.404581 0.911344 -0.075940
vn 0.411590 -0.911033 0.024758
vn -0.411590 0.911033 -0.024758
vn 0.385801 -0.426679 -0.817987
vn -0.385801 0.426679 0.817987
vn 0.375397 -0.822265 -0.427736
vn -0.375397 0.822265 0.427736
vn 0.392337 -0.901961 -0.180385
vn -0.392337 0.901961 0.180385
vn 0.408243 -0.905975 -0.112018
vn -0.408243 0.905975 0.112018
vn 0.413578 -0.910026 -0.028385
vn -0.413578 0.910026 0.028385
vn 0.783185 -0.291130 0.549422
vn -0.783185 0.291130 -0.549422
vn 0.947464 -0.298086 0.116000
vn -0.947464 0.298086 -0.116000
vn 0.952497 -0.288598 0.097269
vn -0.952497 0.288598 -0.097269
vn 0.955047 -0.285972 0.078132
vn -0.955047 0.285972 -0.078132
vn 0.956585 -0.287562 0.047477
vn -0.956585 0.287562 -0.047477
vn 0.951313 -0.307716 0.017745
vn -0.951313 0.307716 -0.017745
vn 0.951005 -0.296019 -0.089234
vn -0.951005 0.296019 0.089234
vn 0.923112 -0.170836 -0.344498
vn -0.923112 0.170836 0.344498
vn 0.888632 -0.069756 -0.453286
vn -0.888632 0.069756 0.453286
vn 0.400301 -0.913693 0.070169
vn -0.400301 0.913693 -0.070169
vn 0.412738 -0.910489 0.025656
vn -0.412738 0.910489 -0.025656
vn 0.420038 -0.907275 -0.020499
vn -0.420038 0.907275 0.020499
vn 0.412159 -0.466068 -0.782883
vn -0.412159 0.466068 0.782883
vn 0.428122 -0.823677 -0.371844
vn -0.428122 0.823677 0.371844
vn 0.416406 -0.896299 -0.152494
vn -0.416406 0.896299 0.152494
vn 0.425880 -0.900019 -0.092688
vn -0.425880 0.900019 0.092688

s off
f 3//1 1//1 2//1
f 6//2 4//2 5//2
f 9//3 7//3 8//3
f 10//4 8//4 7//4
f 11//5 8//5 10//5
f 12//6 11//6 10//6
f 13//7 11//7 12//7
f 14//3 11//3 13//3
f 15//3 11//3 14//3
f 16//8 11//8 15//8
f 2//9 11//9 16//9
f 1//10 11//10 2//10
f 11//11 1//11 17//11
f 19//12 18//12 6//12
f 19//13 6//13 5//13
f 19//14 5//14 20//14
f 19//15 20//15 21//15
f 19//16 21//16 22//16
f 19//16 22//16 23//16
f 19//17 23//17 24//17
f 19//18 24//18 25//18
f 26//19 19//19 25//19
f 26//20 25//20 27//20
f 27//16 28//16 26//16
f 29//21 3//21 2//21
f 4//22 30//22 5//22
f 1//23 3//23 31//23
f 4//24 6//24 32//24
f 33//25 7//25 9//25
f 27//26 34//26 28//26
f 35//27 10//27 7//27
f 25//28 36//28 27//28
f 37//29 12//29 10//29
f 24//30 38//30 25//30
f 39//31 13//31 12//31
f 23//32 40//32 24//32
f 41//33 14//33 13//33
f 22//34 42//34 23//34
f 43//35 15//35 14//35
f 21//36 44//36 22//36
f 45//37 16//37 15//37
f 20//38 46//38 21//38
f 47//39 2//39 16//39
f 5//40 48//40 20//40
f 31//41 49//41 50//41
f 52//42 32//42 51//42
f 55//43 53//43 54//43
f 56//44 54//44 53//44
f 59//45 57//45 58//45
f 54//46 58//46 57//46
f 60//47 58//47 54//47
f 56//48 60//48 54//48
f 58//49 60//49 61//49
f 64//50 62//50 63//50
f 64//51 65//51 66//51
f 62//52 64//52 66//52
f 62//53 66//53 67//53
f 67//54 68//54 62//54
f 66//55 65//55 69//55
f 69//56 70//56 66//56
f 57//57 71//57 54//57
f 55//58 54//58 71//58
f 66//59 70//59 72//59
f 72//60 67//60 66//60
f 3//61 29//61 73//61
f 30//62 4//62 74//62
f 29//63 2//63 47//63
f 5//64 30//64 48//64
f 31//65 3//65 49//65
f 4//66 32//66 52//66
f 35//67 7//67 33//67
f 27//68 36//68 34//68
f 37//69 10//69 35//69
f 25//70 38//70 36//70
f 39//71 12//71 37//71
f 24//72 40//72 38//72
f 41//73 13//73 39//73
f 23//74 42//74 40//74
f 43//75 14//75 41//75
f 22//76 44//76 42//76
f 45//77 15//77 43//77
f 21//78 46//78 44//78
f 47//79 16//79 45//79
f 20//80 48//80 46//80
f 50//81 49//81 75//81
f 52//82 51//82 76//82
f 75//83 77//83 78//83
f 80//84 76//84 79//84
f 83//85 81//85 82//85
f 78//86 82//86 81//86
f 85//87 79//87 84//87
f 84//88 86//88 85//88
f 88//89 59//89 87//89
f 58//90 87//90 59//90
f 61//91 87//91 58//91
f 90//92 87//92 89//92
f 61//93 89//93 87//93
f 92//94 63//94 91//94
f 91//95 93//95 92//95
f 91//96 63//96 62//96
f 91//97 62//97 68//97
f 68//98 94//98 91//98
f 95//99 35//99 33//99
f 36//100 96//100 34//100
f 29//101 97//101 73//101
f 98//102 30//102 74//102
f 3//103 73//103 49//103
f 74//104 4//104 52//104
f 99//105 29//105 47//105
f 30//106 100//106 48//106
f 101//107 37//107 35//107
f 38//108 102//108 36//108
f 103//109 39//109 37//109
f 40//110 104//110 38//110
f 105//111 41//111 39//111
f 42//112 106//112 40//112
f 107//113 43//113 41//113
f 44//114 108//114 42//114
f 109//115 45//115 43//115
f 46//116 110//116 44//116
f 111//117 47//117 45//117
f 48//118 112//118 46//118
f 75//119 49//119 77//119
f 52//120 76//120 80//120
f 78//121 77//121 82//121
f 80//122 79//122 85//122
f 83//123 82//123 113//123
f 85//124 86//124 114//124
f 117//125 115//125 116//125
f 118//126 116//126 115//126
f 119//127 118//127 115//127
f 120//128 118//128 119//128
f 121//18 120//18 119//18
f 122//129 121//129 119//129
f 123//130 122//130 119//130
f 124//131 123//131 119//131
f 125//132 124//132 119//132
f 126//133 125//133 119//133
f 127//134 126//134 119//134
f 130//135 128//135 129//135
f 131//136 130//136 129//136
f 132//137 131//137 129//137
f 133//138 132//138 129//138
f 134//139 133//139 129//139
f 135//140 134//140 129//140
f 136//6 135//6 129//6
f 137//141 136//141 129//141
f 137//142 129//142 138//142
f 139//143 137//143 138//143
f 138//144 140//144 139//144
f 141//145 88//145 90//145
f 87//146 90//146 88//146
f 93//147 91//147 94//147
f 94//148 142//148 93//148
f 143//149 101//149 95//149
f 102//150 144//150 96//150
f 101//151 35//151 95//151
f 36//152 102//152 96//152
f 73//153 97//153 145//153
f 98//154 74//154 146//154
f 97//155 29//155 99//155
f 30//156 98//156 100//156
f 49//157 73//157 77//157
f 74//158 52//158 80//158
f 99//159 47//159 111//159
f 48//160 100//160 112//160
f 101//161 103//161 37//161
f 104//162 102//162 38//162
f 105//163 39//163 103//163
f 40//164 106//164 104//164
f 107//165 41//165 105//165
f 42//166 108//166 106//166
f 109//167 43//167 107//167
f 44//168 110//168 108//168
f 111//169 45//169 109//169
f 46//170 112//170 110//170
f 77//171 145//171 82//171
f 146//172 80//172 85//172
f 82//173 145//173 113//173
f 146//174 85//174 114//174
f 125//175 126//175 145//175
f 130//176 131//176 146//176
f 124//177 125//177 147//177
f 131//178 132//178 148//178
f 123//179 124//179 149//179
f 132//180 133//180 150//180
f 122//181 123//181 151//181
f 133//182 134//182 152//182
f 121//183 122//183 153//183
f 134//184 135//184 154//184
f 120//185 121//185 155//185
f 135//186 136//186 156//186
f 118//187 120//187 157//187
f 136//188 137//188 158//188
f 116//189 118//189 159//189
f 137//190 139//190 160//190
f 117//191 116//191 143//191
f 139//192 140//192 144//192
f 113//193 145//193 126//193
f 146//194 114//194 130//194
f 159//195 101//195 143//195
f 102//196 160//196 144//196
f 145//197 97//197 161//197
f 98//198 146//198 162//198
f 77//199 73//199 145//199
f 74//200 80//200 146//200
f 147//201 97//201 99//201
f 98//202 148//202 100//202
f 149//203 99//203 111//203
f 100//204 150//204 112//204
f 159//205 103//205 101//205
f 104//206 160//206 102//206
f 157//207 105//207 103//207
f 106//208 158//208 104//208
f 155//209 107//209 105//209
f 108//210 156//210 106//210
f 153//211 109//211 107//211
f 110//212 154//212 108//212
f 151//213 111//213 109//213
f 112//214 152//214 110//214
f 125//215 145//215 161//215
f 146//216 131//216 162//216
f 147//217 125//217 161//217
f 131//218 148//218 162//218
f 149//219 124//219 147//219
f 132//220 150//220 148//220
f 151//221 123//221 149//221
f 133//222 152//222 150//222
f 153//223 122//223 151//223
f 134//224 154//224 152//224
f 155//225 121//225 153//225
f 135//226 156//226 154//226
f 157//227 120//227 155//227
f 136//228 158//228 156//228
f 159//229 118//229 157//229
f 137//230 160//230 158//230
f 143//231 116//231 159//231
f 139//232 144//232 160//232
f 161//233 97//233 147//233
f 98//234 162//234 148//234
f 147//235 99//235 149//235
f 100//236 148//236 150//236
f 149//237 111//237 151//237
f 112//238 150//238 152//238
f 157//239 103//239 159//239
f 104//240 158//240 160//240
f 155//241 105//241 157//241
f 106//242 156//242 158//242
f 153//243 107//243 155//243
f 108//244 154//244 156//244
f 151//245 109//245 153//245
f 110//246 152//246 154//246
